# xmcd
#
# Track frame offsets:
#	150
#	16479
#	32546
#	47174
#	58887
#	72186
#	84190
#	99593
#	114632
#	129384
#	144252
#	158321
#	175054
#	194593
#	209995
#	230028
#	244962
#	259418
#	276197
#	293978
#	309544
#
# Disc length: 4347 seconds
#
# Revision: 1
# Processed by: cddbd v1.4b41PL3 Copyright (c) Steve Scherf et al.
# Submitted via: audiograbber 1.80
#
DISCID=3a10f915
DTITLE=Fausto Papetti - Hit collection 2000
DYEAR=1900
DGENRE=
TTITLE0=Fillings
TTITLE1=Yesterday
TTITLE2=I Just Called To Say I Love You
TTITLE3=Love Theme From "Godfather"
TTITLE4=Love Story
TTITLE5=Stranger In The Night
TTITLE6=Emmanuelle
TTITLE7=Theme From Paradise
TTITLE8=Woman In Love
TTITLE9=Life Is Life
TTITLE10=Adagio Di Albioni
TTITLE11=Bossa From My Lady
TTITLE12=Reality
TTITLE13=Your Eyes
TTITLE14=Dicitencello Vuje
TTITLE15=Mask The Knife
TTITLE16=The Windmills Of Your Mind
TTITLE17=This Is America
TTITLE18=Aranjues MonAmur
TTITLE19=Hill Street Blues
TTITLE20=Part-Time Lover
EXTD=
EXTT0=
EXTT1=
EXTT2=
EXTT3=
EXTT4=
EXTT5=
EXTT6=
EXTT7=
EXTT8=
EXTT9=
EXTT10=
EXTT11=
EXTT12=
EXTT13=
EXTT14=
EXTT15=
EXTT16=
EXTT17=
EXTT18=
EXTT19=
EXTT20=
PLAYORDER=
